Coordinates
version=1
nRows=14
nColumns=63
inDegrees=yes

Units are S.I. units (second, meters, Newtons, ...)
If the header above contains a line with 'inDegrees', this indicates whether rotational values are in degrees (yes) or radians (no).

endheader
time	pelvis_tilt	pelvis_list	pelvis_rotation	pelvis_tx	pelvis_ty	pelvis_tz	hip_flexion_r	hip_adduction_r	hip_rotation_r	knee_angle_r	knee_angle_r_beta	ankle_angle_r	subtalar_angle_r	mtp_angle_r	hip_flexion_l	hip_adduction_l	hip_rotation_l	knee_angle_l	knee_angle_l_beta	ankle_angle_l	subtalar_angle_l	mtp_angle_l	L5_S1_Flex_Ext	L5_S1_Lat_Bending	L5_S1_axial_rotation	L4_L5_Flex_Ext	L4_L5_Lat_Bending	L4_L5_axial_rotation	L3_L4_Flex_Ext	L3_L4_Lat_Bending	L3_L4_axial_rotation	L2_L3_Flex_Ext	L2_L3_Lat_Bending	L2_L3_axial_rotation	L1_L2_Flex_Ext	L1_L2_Lat_Bending	L1_L2_axial_rotation	L1_T12_Flex_Ext	L1_T12_Lat_Bending	L1_T12_axial_rotation	Abs_r3	Abs_r2	Abs_r1	Abs_t1	Abs_t2	neck_flexion	neck_bending	neck_rotation	arm_flex_r	arm_add_r	arm_rot_r	elbow_flex_r	pro_sup_r	wrist_flex_r	wrist_dev_r	arm_flex_l	arm_add_l	arm_rot_l	elbow_flex_l	pro_sup_l	wrist_flex_l	wrist_dev_l
1.914286	-1.943301	0.272500	90.973447	0.226048	0.870252	0.564061	-5.124785	-2.334511	2.961542	8.020544	0.139985	10.664525	-7.345518	0.000000	-6.138754	-0.163329	6.033730	3.898385	0.068040	13.374853	-3.761830	0.000000	0.020909	-0.392796	0.807569	0.038831	-0.522419	0.858042	0.034352	-0.955045	0.858042	0.023897	-0.955045	0.706623	0.019416	-0.800990	0.656150	0.011948	-0.608442	0.605677	0.149353	-4.443391	4.491455	0.000000	0.000000	27.155430	-1.808495	1.502748	16.670068	-12.157284	129.655352	3.254019	2.767942	2.364894	-17.204538	14.549024	-10.828545	128.697624	0.932015	3.844530	-13.305447	-12.389193
1.942857	-2.065551	0.234139	91.044675	0.225902	0.872577	0.562671	-5.323190	-2.566090	2.323729	7.570378	0.132128	10.162834	-6.318752	0.000000	-6.026817	-0.049897	6.253125	4.114614	0.071814	12.560399	-3.782097	0.000000	0.033224	-0.395326	0.737933	0.061700	-0.525783	0.784054	0.054583	-0.961195	0.784054	0.037972	-0.961195	0.645692	0.030852	-0.806149	0.599571	0.018984	-0.612360	0.553450	0.237315	-4.472006	4.104163	0.000000	0.000000	27.383756	-2.384068	1.184705	16.828826	-12.286676	126.645231	3.969837	2.962546	2.477878	-16.708746	13.532795	-10.968570	124.942135	1.084998	3.373244	-10.868154	-12.826080
1.971429	-2.145233	0.192909	91.078301	0.225610	0.874914	0.561446	-5.492658	-2.758975	1.744630	7.126709	0.124385	9.623416	-5.357444	0.000000	-5.900455	0.034323	6.298066	4.320673	0.075410	11.778649	-3.677631	0.000000	0.040969	-0.387729	0.642594	0.076083	-0.515680	0.682756	0.067308	-0.942725	0.682756	0.046823	-0.942725	0.562270	0.038044	-0.790658	0.522108	0.023410	-0.600593	0.481946	0.292637	-4.386072	3.573917	0.000000	0.000000	27.634929	-2.915953	0.713963	17.096364	-12.372363	122.990626	4.510840	2.991059	2.507889	-16.208790	12.433503	-11.170062	121.205528	1.227964	2.961451	-8.658149	-13.345643
2.000000	-2.177644	0.152193	91.059348	0.225143	0.877207	0.560367	-5.635439	-2.917218	1.158756	6.711111	0.117131	9.011211	-4.388531	0.000000	-5.773114	0.090397	6.234380	4.504455	0.078618	11.003718	-3.569317	0.000000	0.043549	-0.368493	0.527460	0.080875	-0.490096	0.560427	0.071546	-0.895955	0.560427	0.049772	-0.895955	0.461528	0.040440	-0.751432	0.428562	0.024884	-0.570796	0.395595	0.311065	-4.168472	2.933576	0.000000	0.000000	27.873418	-3.267132	0.253850	17.495928	-12.431698	118.763763	4.901285	2.962420	2.331034	-15.734036	11.355186	-11.396547	118.160159	1.339895	2.722968	-7.333798	-13.875840
2.028571	-2.146739	0.122516	90.986044	0.224515	0.879402	0.559438	-5.760856	-3.020681	0.582052	6.337964	0.110618	8.323835	-3.463937	0.000000	-5.662497	0.102666	6.089883	4.659623	0.081326	10.231289	-3.496364	0.000000	0.040359	-0.336226	0.398084	0.074951	-0.447180	0.422964	0.066306	-0.817499	0.422964	0.046127	-0.817499	0.348324	0.037478	-0.685632	0.323443	0.023061	-0.520814	0.298563	0.288283	-3.803453	2.214025	0.000000	0.000000	28.029248	-3.392233	-0.162780	18.023561	-12.467849	114.216766	5.144571	2.916316	1.873463	-15.318637	10.398013	-11.621232	115.892986	1.418049	2.654005	-7.022527	-14.421550
2.057143	-2.054489	0.112806	90.860435	0.223787	0.881430	0.558705	-5.872253	-3.064757	0.031588	6.020642	0.105080	7.635390	-2.587031	0.000000	-5.580466	0.069002	5.912013	4.785234	0.083518	9.473755	-3.493652	0.000000	0.030953	-0.293257	0.265227	0.057483	-0.390032	0.281803	0.050852	-0.713026	0.281803	0.035376	-0.713026	0.232073	0.028743	-0.598010	0.215497	0.017686	-0.454255	0.198920	0.221093	-3.317384	1.475111	0.000000	0.000000	28.052517	-3.290916	-0.563818	18.642900	-12.484764	109.717914	5.225656	2.850494	1.179674	-14.910191	9.651007	-11.833696	114.171687	1.468176	2.619419	-7.341351	-15.051329
2.085714	-1.917995	0.123667	90.695418	0.222982	0.883217	0.558203	-5.964576	-3.059341	-0.440903	5.770134	0.100708	6.981445	-1.808084	0.000000	-5.530764	0.004143	5.725112	4.871767	0.085028	8.770840	-3.568825	0.000000	0.015756	-0.243564	0.143024	0.029260	-0.323941	0.151963	0.025885	-0.592203	0.151963	0.018007	-0.592203	0.125146	0.014631	-0.496677	0.116207	0.009003	-0.377281	0.107268	0.112540	-2.755249	0.795459	0.000000	0.000000	27.918633	-2.999635	-1.003741	19.291536	-12.511568	105.413845	5.210738	2.803860	0.280547	-14.491309	9.179326	-12.005285	112.952162	1.493508	2.562320	-8.104072	-15.755854
2.114286	-1.750407	0.154068	90.491451	0.222161	0.884687	0.557930	-6.036043	-3.013683	-0.820578	5.590172	0.097567	6.388509	-1.137309	0.000000	-5.518999	-0.083033	5.526847	4.912378	0.085737	8.154653	-3.695415	0.000000	-0.004563	-0.190580	0.045854	-0.008473	-0.253471	0.048720	-0.007496	-0.463375	0.048720	-0.005215	-0.463375	0.040122	-0.004237	-0.388630	0.037256	-0.002607	-0.295208	0.034390	-0.032591	-2.155874	0.255025	0.000000	0.000000	27.630994	-2.609344	-1.557956	19.902928	-12.534996	101.428864	5.106421	2.760344	-0.717658	-14.061950	9.015542	-12.101514	112.413122	1.488889	2.521507	-9.252916	-16.465786
2.142857	-1.568859	0.208080	90.267401	0.221366	0.885760	0.557881	-6.098617	-2.939615	-1.090455	5.475996	0.095574	5.901298	-0.587980	0.000000	-5.550591	-0.178682	5.365997	4.908383	0.085667	7.631518	-3.908305	0.000000	-0.029858	-0.137977	-0.027217	-0.055450	-0.183510	-0.028918	-0.049054	-0.335478	-0.028918	-0.034125	-0.335478	-0.023815	-0.027726	-0.281363	-0.022114	-0.017061	-0.213727	-0.020413	-0.213275	-1.560825	-0.151371	0.000000	0.000000	27.202626	-2.142935	-2.209157	20.451755	-12.514695	97.997032	4.891273	2.651517	-1.731282	-13.654035	9.136376	-12.115093	112.521537	1.452924	2.454800	-10.588757	-17.226139
2.171429	-1.385768	0.265641	90.041110	0.220600	0.886391	0.558111	-6.133655	-2.849652	-1.270454	5.423232	0.094653	5.555656	-0.119532	0.000000	-5.595691	-0.271407	5.301196	4.869817	0.084994	7.196818	-4.257507	0.000000	-0.057226	-0.087686	-0.086721	-0.106274	-0.116622	-0.092141	-0.094016	-0.213199	-0.092141	-0.065404	-0.213199	-0.075881	-0.053140	-0.178808	-0.070461	-0.032699	-0.135825	-0.065041	-0.408759	-0.991917	-0.482315	0.000000	0.000000	26.653405	-1.621641	-2.855479	20.958471	-12.436008	95.094962	4.611283	2.542473	-2.663667	-13.369245	9.475153	-12.050600	113.061221	1.389411	2.364073	-12.050213	-18.091074
2.200000	-1.212649	0.318070	89.836991	0.219871	0.886667	0.558700	-6.131012	-2.753807	-1.419878	5.434914	0.094857	5.324157	0.296450	0.000000	-5.635770	-0.354336	5.321946	4.802015	0.083811	6.834489	-4.706288	0.000000	-0.086626	-0.041969	-0.142523	-0.160874	-0.055818	-0.151430	-0.142318	-0.102042	-0.151430	-0.099005	-0.102042	-0.124707	-0.080441	-0.085582	-0.115800	-0.049498	-0.065009	-0.106892	-0.618763	-0.474757	-0.792669	0.000000	0.000000	26.000002	-1.078087	-3.426095	21.443680	-12.276386	92.850469	4.267285	2.384231	-3.457662	-13.168582	9.989168	-11.926250	114.014213	1.295839	2.214741	-13.582006	-19.014538
2.228571	-1.058529	0.348696	89.651975	0.219160	0.886704	0.559721	-6.066900	-2.665326	-1.574428	5.517764	0.096303	5.154549	0.677889	0.000000	-5.645311	-0.420500	5.347218	4.713189	0.082261	6.529187	-5.156942	0.000000	-0.116706	-0.001970	-0.190572	-0.216735	-0.002620	-0.202483	-0.191737	-0.004790	-0.202483	-0.133384	-0.004790	-0.166751	-0.108374	-0.004017	-0.154840	-0.066686	-0.003051	-0.142929	-0.833622	-0.022284	-1.059905	0.000000	0.000000	25.267272	-0.586520	-3.901648	21.895979	-12.064038	91.146540	3.885389	2.199908	-4.002471	-13.090436	10.654719	-11.725512	115.381441	1.172723	2.034892	-15.321394	-19.998170
2.257143	-0.935824	0.354661	89.483167	0.218483	0.886532	0.561194	-5.940257	-2.600295	-1.780108	5.666529	0.098900	5.050315	1.090524	0.000000	-5.616457	-0.459477	5.280788	4.612459	0.080503	6.304279	-5.509755	0.000000	-0.146094	0.030726	-0.232092	-0.271311	0.040866	-0.246598	-0.240018	0.074707	-0.246598	-0.166971	0.074707	-0.203081	-0.135663	0.062657	-0.188575	-0.083478	0.047595	-0.174069	-1.043536	0.347579	-1.290827	0.000000	0.000000	24.511223	-0.152970	-4.195069	22.328331	-11.822104	89.871484	3.514461	2.026144	-4.185207	-13.122104	11.454177	-11.515429	116.693368	1.022607	1.859051	-16.156697	-21.000074
2.285714	-0.840550	0.337790	89.280952	0.217836	0.886158	0.563121	-5.747039	-2.559002	-1.979634	5.869426	0.102441	5.023600	1.503009	0.000000	-5.551445	-0.465468	5.053085	4.504330	0.078615	6.193730	-5.752039	0.000000	-0.172499	0.058009	-0.251237	-0.320347	0.077152	-0.266939	-0.283398	0.141044	-0.266939	-0.197149	0.141044	-0.219832	-0.160182	0.118293	-0.204130	-0.098566	0.089856	-0.188428	-1.232140	0.656213	-1.397305	0.000000	0.000000	23.746270	0.198095	-4.285658	22.717750	-11.611849	88.981418	3.152756	1.863932	-3.776009	-13.368378	12.383454	-11.283094	117.965427	0.846338	1.684581	-16.207254	-21.957411
